<?xml version="1.0" encoding="utf-8"?>
<!-- Generator: Adobe Illustrator 25.4.1, SVG Export Plug-In . SVG Version: 6.00 Build 0)  -->
<svg version="1.1" id="Capa_1" xmlns="http://www.w3.org/2000/svg" xmlns:xlink="http://www.w3.org/1999/xlink" x="0px" y="0px"
	 viewBox="0 0 571.88 565.92" style="enable-background:new 0 0 571.88 565.92;" xml:space="preserve">
<style type="text/css">
	.st0{fill:#FFFFFF;}
</style>
<g>
	<path class="st0" d="M565.55,114.15c-0.01-2.56-1.59-4.86-3.98-5.8l-77.18-30.14c-1.45-0.57-3.07-0.57-4.52-0.01l-78.07,30.16
		c-0.92,0.36-1.75,0.93-2.41,1.67l-31.7,35.53l0.13-107.09c0-0.03-0.01-0.05-0.01-0.08c0-0.27-0.02-0.55-0.06-0.82
		c0-0.02,0-0.05-0.01-0.07c-0.04-0.27-0.11-0.54-0.19-0.82c-0.02-0.07-0.04-0.13-0.06-0.2c-0.03-0.09-0.05-0.18-0.09-0.27
		c-0.05-0.13-0.11-0.26-0.17-0.39c-0.02-0.04-0.04-0.09-0.06-0.13c-0.12-0.25-0.27-0.49-0.42-0.72c-0.03-0.04-0.05-0.08-0.08-0.11
		c-0.15-0.21-0.31-0.42-0.48-0.61c-0.02-0.02-0.04-0.05-0.06-0.07c-0.19-0.21-0.4-0.4-0.62-0.57c-0.04-0.03-0.08-0.06-0.12-0.1
		c-0.21-0.16-0.43-0.31-0.65-0.45c-0.02-0.01-0.04-0.03-0.06-0.04c-0.25-0.14-0.5-0.26-0.76-0.36c-0.03-0.01-0.06-0.03-0.08-0.04
		L285.93,2.48c-1.47-0.57-3.1-0.56-4.56,0.02l-75.73,30.16c-1.34,0.53-2.45,1.51-3.15,2.76l-39.97,71.66L89.7,78.23
		c-1.46-0.58-3.08-0.59-4.54-0.03L6.51,108.34c-2.41,0.92-4.01,3.24-4.01,5.82L1.76,441.99c-0.01,2.53,1.51,4.81,3.84,5.78
		l79.34,33.05c0.21,0.09,0.43,0.17,0.66,0.24c0.03,0.01,0.07,0.02,0.1,0.03c0.17,0.05,0.33,0.09,0.51,0.12
		c0.07,0.01,0.14,0.02,0.21,0.03c0.14,0.02,0.27,0.04,0.41,0.06c0.1,0.01,0.19,0.01,0.29,0.01s0.19,0.01,0.29,0.01
		c0.02,0,0.03,0,0.05,0c0.1,0,0.19-0.01,0.29-0.01c0.12-0.01,0.24-0.01,0.35-0.02c0.07-0.01,0.14-0.02,0.21-0.03
		c0.14-0.02,0.29-0.04,0.43-0.07c0.05-0.01,0.1-0.03,0.15-0.04c0.16-0.04,0.31-0.08,0.47-0.13c0.05-0.02,0.09-0.03,0.14-0.05
		c0.15-0.05,0.3-0.11,0.45-0.17c0.01-0.01,0.03-0.01,0.04-0.02l66.65-29.92l39.18,75.61c0.68,1.3,1.79,2.33,3.15,2.89l83.06,34.55
		c0.77,0.32,1.58,0.48,2.4,0.48s1.64-0.16,2.42-0.49l82.33-34.55c2.31-0.97,3.81-3.22,3.83-5.72l0.61-97.65l13.05,18.2
		c0.71,0.99,1.7,1.76,2.85,2.2l90.24,34.44c0.03,0.01,0.06,0.02,0.09,0.03c0.08,0.03,0.16,0.05,0.24,0.08
		c0.13,0.04,0.26,0.08,0.4,0.11c0.08,0.02,0.16,0.04,0.24,0.05c0.14,0.03,0.28,0.05,0.42,0.07c0.07,0.01,0.15,0.02,0.22,0.03
		c0.16,0.02,0.33,0.02,0.49,0.03c0.04,0,0.09,0.01,0.13,0.01c0.01,0,0.02,0,0.03,0c0.04,0,0.07,0,0.11,0c0.15,0,0.29-0.01,0.44-0.02
		c0.05,0,0.1-0.01,0.15-0.02c0.13-0.02,0.27-0.04,0.4-0.06c0.05-0.01,0.1-0.02,0.15-0.03c0.13-0.03,0.27-0.06,0.4-0.1
		c0.05-0.01,0.09-0.03,0.14-0.04c0.14-0.04,0.28-0.09,0.41-0.14c0.03-0.01,0.05-0.02,0.08-0.03l0.12-0.05h0.01l78.52-31.56
		c2.38-0.95,3.93-3.26,3.92-5.82L565.55,114.15z M482.11,90.74l60.78,23.73l-60.75,23.14l-60.65-23.46L482.11,90.74z M285.12,214.05
		l-65.66-25.57l2.43-0.92c0.64-0.14,1.26-0.37,1.83-0.7l61.4-23.36l65.08,24.99L285.12,214.05z M210.87,46.06l65.24,25.03
		L216.33,176.3l-11.2,4.26l-32.75-65.5L210.87,46.06z M372.59,184.84c-0.16-0.22-0.33-0.43-0.51-0.63c-0.03-0.03-0.06-0.07-0.09-0.1
		c-0.19-0.2-0.39-0.38-0.6-0.55c-0.04-0.03-0.07-0.06-0.11-0.08c-0.22-0.17-0.45-0.33-0.69-0.46c-0.03-0.02-0.07-0.04-0.1-0.05
		c-0.25-0.14-0.51-0.27-0.78-0.37c-0.01,0-0.01-0.01-0.02-0.01l-13.41-5.15l9.98-11.36c0.23-0.26,0.43-0.54,0.61-0.83l39.02-43.72
		l69.98,27.07v184.57L372.59,184.84z M283.7,15.04l60.52,23.41l-59.09,22.73l-59.74-22.92L283.7,15.04z M87.37,90.74L148,114.76
		l-60.58,22.86l-61.38-23.38L87.37,90.74z M93.65,465.43V326.97l57.27,112.74L93.65,465.43z M165.29,440.44
		c-0.04-0.1-0.08-0.19-0.13-0.28L92.98,298.05c-1.31-2.58-4.22-3.92-7.03-3.25c-2.81,0.67-4.79,3.19-4.79,6.08v164.83l-66.88-27.87
		l0.7-314.44l68,25.9l112.83,214.02c1.34,2.54,4.23,3.84,7.01,3.15c2.78-0.68,4.75-3.17,4.76-6.04l0.7-162.9l70.59,27.49
		l-0.71,323.76l-72.33-30.08L165.29,440.44z M373.71,404.71v-60.45l89.84,117l-67.85-25.89L373.71,404.71z"/>
</g>
</svg>
