<?xml version="1.0" encoding="utf-8"?>
<!-- Generator: Adobe Illustrator 25.4.1, SVG Export Plug-In . SVG Version: 6.00 Build 0)  -->
<svg version="1.1" id="Capa_1" xmlns="http://www.w3.org/2000/svg" xmlns:xlink="http://www.w3.org/1999/xlink" x="0px" y="0px"
	 viewBox="0 0 2398 590" style="enable-background:new 0 0 2398 590;" xml:space="preserve">
<style type="text/css">
	.st0{fill:#FFFFFF;}
</style>
<g>
	<path class="st0" d="M1169.61,127.76c-0.01-2.56-1.59-4.86-3.98-5.8l-77.18-30.14c-1.45-0.57-3.07-0.57-4.52-0.01l-78.07,30.16
		c-0.92,0.36-1.75,0.93-2.41,1.67l-31.7,35.53l0.13-107.09c0-0.03-0.01-0.05-0.01-0.08c0-0.27-0.02-0.55-0.06-0.82
		c0-0.02,0-0.05-0.01-0.07c-0.04-0.27-0.11-0.54-0.19-0.82c-0.02-0.07-0.04-0.13-0.06-0.2c-0.03-0.09-0.05-0.18-0.09-0.27
		c-0.05-0.13-0.11-0.26-0.17-0.39c-0.02-0.04-0.04-0.09-0.06-0.13c-0.12-0.25-0.27-0.49-0.42-0.72c-0.03-0.04-0.05-0.08-0.08-0.11
		c-0.15-0.21-0.31-0.42-0.48-0.61c-0.02-0.02-0.04-0.05-0.06-0.07c-0.19-0.21-0.4-0.4-0.62-0.57c-0.04-0.03-0.08-0.06-0.12-0.1
		c-0.21-0.16-0.43-0.31-0.65-0.45c-0.02-0.01-0.04-0.03-0.06-0.04c-0.25-0.14-0.5-0.26-0.76-0.36c-0.03-0.01-0.06-0.03-0.08-0.04
		l-77.91-30.14c-1.47-0.57-3.1-0.56-4.56,0.02L809.7,46.27c-1.34,0.53-2.45,1.51-3.15,2.76l-39.97,71.66l-72.82-28.85
		c-1.46-0.58-3.08-0.59-4.54-0.03l-78.65,30.14c-2.41,0.92-4.01,3.24-4.01,5.82l-0.74,327.83c-0.01,2.53,1.51,4.81,3.84,5.78
		L689,494.43c0.21,0.09,0.43,0.17,0.66,0.24c0.03,0.01,0.07,0.02,0.1,0.03c0.17,0.05,0.33,0.09,0.51,0.12
		c0.07,0.01,0.14,0.02,0.21,0.03c0.14,0.02,0.27,0.04,0.41,0.06c0.1,0.01,0.19,0.01,0.29,0.01c0.1,0,0.19,0.01,0.29,0.01
		c0.02,0,0.03,0,0.05,0c0.1,0,0.19-0.01,0.29-0.01c0.12-0.01,0.24-0.01,0.35-0.02c0.07-0.01,0.14-0.02,0.21-0.03
		c0.14-0.02,0.29-0.04,0.43-0.07c0.05-0.01,0.1-0.03,0.15-0.04c0.16-0.04,0.31-0.08,0.47-0.13c0.05-0.02,0.09-0.03,0.14-0.05
		c0.15-0.05,0.3-0.11,0.45-0.17c0.01-0.01,0.03-0.01,0.04-0.02l66.65-29.92l39.18,75.61c0.68,1.3,1.79,2.33,3.15,2.89l83.06,34.55
		c0.77,0.32,1.58,0.48,2.4,0.48c0.82,0,1.64-0.16,2.42-0.49l82.33-34.55c2.31-0.97,3.81-3.22,3.83-5.72l0.61-97.65l13.05,18.2
		c0.71,0.99,1.7,1.76,2.85,2.2l90.24,34.44c0.03,0.01,0.06,0.02,0.09,0.03c0.08,0.03,0.16,0.05,0.24,0.08
		c0.13,0.04,0.26,0.08,0.4,0.11c0.08,0.02,0.16,0.04,0.24,0.05c0.14,0.03,0.28,0.05,0.42,0.07c0.07,0.01,0.15,0.02,0.22,0.03
		c0.16,0.02,0.33,0.02,0.49,0.03c0.04,0,0.09,0.01,0.13,0.01c0.01,0,0.02,0,0.03,0c0.04,0,0.07,0,0.11,0c0.15,0,0.29-0.01,0.44-0.02
		c0.05,0,0.1-0.01,0.15-0.02c0.13-0.02,0.27-0.04,0.4-0.06c0.05-0.01,0.1-0.02,0.15-0.03c0.13-0.03,0.27-0.06,0.4-0.1
		c0.05-0.01,0.09-0.03,0.14-0.04c0.14-0.04,0.28-0.09,0.41-0.14c0.03-0.01,0.05-0.02,0.08-0.03l0.12-0.05c0,0,0.01,0,0.01,0
		l78.52-31.56c2.38-0.95,3.93-3.26,3.92-5.82L1169.61,127.76z M1086.17,104.35l60.78,23.73l-60.75,23.14l-60.65-23.46
		L1086.17,104.35z M889.18,227.66l-65.66-25.57l2.43-0.92c0.64-0.14,1.26-0.37,1.83-0.7l61.4-23.36l65.08,24.99L889.18,227.66z
		 M814.93,59.67l65.24,25.03l-59.78,105.21l-11.2,4.26l-32.75-65.5L814.93,59.67z M976.65,198.45c-0.16-0.22-0.33-0.43-0.51-0.63
		c-0.03-0.03-0.06-0.07-0.09-0.1c-0.19-0.2-0.39-0.38-0.6-0.55c-0.04-0.03-0.07-0.06-0.11-0.08c-0.22-0.17-0.45-0.33-0.69-0.46
		c-0.03-0.02-0.07-0.04-0.1-0.05c-0.25-0.14-0.51-0.27-0.78-0.37c-0.01,0-0.01-0.01-0.02-0.01l-13.41-5.15l9.98-11.36
		c0.23-0.26,0.43-0.54,0.61-0.83l39.02-43.72l69.98,27.07v184.57L976.65,198.45z M887.76,28.65l60.52,23.41l-59.09,22.73
		l-59.74-22.92L887.76,28.65z M691.43,104.35l60.63,24.02l-60.58,22.86l-61.38-23.38L691.43,104.35z M697.71,479.04V340.58
		l57.27,112.74L697.71,479.04z M769.35,454.05c-0.04-0.1-0.08-0.19-0.13-0.28l-72.18-142.11c-1.31-2.58-4.22-3.92-7.03-3.25
		c-2.81,0.67-4.79,3.19-4.79,6.08v164.83l-66.88-27.87l0.7-314.44l68,25.9l112.83,214.02c1.34,2.54,4.23,3.84,7.01,3.15
		c2.78-0.68,4.75-3.17,4.76-6.04l0.7-162.9l70.59,27.49l-0.71,323.76l-72.33-30.08L769.35,454.05z M977.77,418.32v-60.45l89.84,117
		l-67.85-25.89L977.77,418.32z"/>
	<g>
		<g>
			<path class="st0" d="M391.16,344.75c-26.76,28.79-51.14,43.19-73.12,43.19c-13.38,0-23.57-6.45-30.56-19.36
				c-6.99-12.9-10.48-30.17-10.48-51.79c0-16.73,3.43-39.72,10.3-69c6.87-29.27,15.74-53.88,26.61-73.84l10.39-18.64
				c-14.22,14.82-25.87,31.03-34.95,48.66c-9.08,17.62-19.92,42.27-32.53,73.93c-12.61,31.66-22.13,53.23-28.58,64.7
				c-6.45,11.47-12.63,20.82-18.55,28.05c-5.91,7.23-11.17,11.92-15.77,14.07c-4.6,2.15-12.63,3.23-24.1,3.23
				c-4.42,0-6.63-1.2-6.63-3.58c0-0.24,0.79-4,2.37-11.29c1.58-7.29,3.2-18.97,4.84-35.04c1.64-16.07,2.83-43.37,3.54-81.9
				c0.72-38.53,6.33-71.53,16.85-99.02c-11.25,12.79-22.73,42.53-34.45,89.25l-4.49,17.56c-12.32,48.63-26.43,81.45-42.34,98.48
				c-15.91,17.02-31.52,25.54-46.82,25.54c-9.45,0-17.76-2.99-24.94-8.96C30.59,373,27,366.13,27,358.37
				c0-5.97,4.31-12.66,12.92-20.07c8.61-7.41,14.05-11.11,16.31-11.11c2.61,0,4.34,0.9,5.18,2.69c0.84,1.79,1.92,6.72,3.23,14.78
				c1.32,8.07,3.32,13.32,6.02,15.77c2.69,2.45,6.08,3.67,10.15,3.67c9.22,0,19.41-9.23,30.55-27.69
				c11.14-18.46,21.33-46.98,30.55-85.57l5.21-21.69c4.19-17.68,8.33-31.78,12.4-42.29c4.07-10.51,9.46-21.03,16.17-31.54
				c9.7-15.05,15.66-23.09,17.87-24.1c2.21-1.01,6.36-1.85,12.46-2.51c6.09-0.66,12.19-0.99,18.28-0.99c2.39,0,3.58,1.38,3.58,4.12
				c0,1.32-0.38,4-1.12,8.06c-2.36,16.73-3.48,33.51-3.36,50.36l0.36,48.03c0.24,41.82-3.11,75.57-10.04,101.26
				c6.33-7.64,15.53-27.36,27.6-59.14c17.44-45.04,33.33-78.85,47.67-101.43c6.81-10.87,15.02-21.3,24.64-31.27
				c9.62-9.97,16.28-15.32,19.98-16.04c12.66-2.39,23.36-3.58,32.08-3.58c3.23,0,4.84,0.9,4.84,2.69c0,2.51-1.97,8.13-5.89,16.85
				c-9.29,21.04-17.96,49.47-26.01,85.32c-8.05,35.85-12.11,64.4-12.19,85.64c0,24.01,7.35,36.02,22.04,36.02
				c11.95,0,26.17-10.15,42.65-30.47V344.75z"/>
			<path class="st0" d="M564.03,344.75c-15.17,14.69-39.4,29.74-72.72,45.14c-11.12,31.55-23.61,53.87-37.47,66.95
				c-13.87,13.08-28.33,19.63-43.39,19.63c-7.65,0-13.78-2.33-18.38-6.99c-4.6-4.66-6.9-10.87-6.9-18.64
				c0-23.54,21.56-44.87,64.7-63.98l10.93-38.53c-22.58,25.21-42.41,37.81-59.5,37.81c-9.2,0-16.64-3.76-22.31-11.29
				c-5.68-7.53-8.51-17.56-8.51-30.11c0-18.04,3.93-37.39,11.8-58.07l17.16-45.52l52.02-9.1l-22.32,53.19
				c-10.24,25.67-15.34,45.03-15.3,58.05c0,10.76,3.64,16.14,10.93,16.14c7.41,0,15.86-5.97,25.36-17.92
				c9.5-11.95,17.47-26.64,23.93-44.09l20.43-56.27l48.87-9.13l-46.6,140.13c27.36-12.54,49.78-28.55,67.26-48.03V344.75z
				 M444.67,404.6c-14.7,6.57-26.02,13.95-33.96,22.13c-7.95,8.18-11.92,16.22-11.92,24.1c0,8,3.41,12.01,10.22,12.01
				C422.27,462.85,434.16,443.43,444.67,404.6z"/>
		</g>
		<g>
			<path class="st0" d="M1345.06,344.75c-15.29,15.05-29.3,26.11-42.03,33.15c-12.72,7.05-26.02,10.57-39.87,10.57
				c-15.53,0-28.35-5.05-38.44-15.14c-10.1-10.09-15.14-22.91-15.14-38.44c0-25.45,9.29-48.95,27.87-70.52
				c18.58-21.56,38.68-32.35,60.31-32.35c10.63,0,19.29,2.96,25.99,8.87c6.69,5.91,10.04,13.59,10.04,23.03
				c0,3.35-0.63,5.86-1.88,7.53c-1.26,1.67-3.62,3.35-7.08,5.02l-20.79,9.86c-2.51,1.2-4.36,1.79-5.56,1.79
				c-1.67,0-2.51-1.19-2.51-3.58c0-0.96,0.36-4.09,1.08-9.41c0.72-5.32,1.08-8.57,1.08-9.77c0-5.26-1.11-9.5-3.32-12.72
				c-2.21-3.22-5.17-4.84-8.87-4.84c-8.72,0-16.7,6.45-23.92,19.36c-7.23,12.9-10.84,27.6-10.84,44.09
				c0,14.22,3.41,25.57,10.22,34.05c6.81,8.48,15.89,12.72,27.24,12.72c9.68,0,18.79-2.78,27.33-8.33
				c8.54-5.56,18.25-14.07,29.12-25.54V344.75z"/>
			<path class="st0" d="M1487.65,344.75c-6.09,5.38-12.01,9.17-17.74,11.38c-5.73,2.21-10.28,3.32-13.62,3.32
				c-8.6,0-17.15-3.34-25.63-10.04c-17.2,26.05-36.92,39.07-59.14,39.07c-13.86,0-25.09-5.2-33.69-15.59
				c-8.6-10.39-12.9-24.19-12.9-41.4c0-27.24,9.68-50.63,29.03-70.16c19.35-19.53,42.47-29.3,69.36-29.3
				c10.15,0,17.59,1.11,22.31,3.32c4.72,2.21,7.62,4.81,8.69,7.8c1.08,2.99,1.61,6.75,1.61,11.29c0,22.34-6.09,49.76-18.28,82.26
				c6.09,5.62,12.48,8.42,19.18,8.42c8,0,18.28-6.99,30.82-20.97V344.75z M1428.51,244.56c-1.79-0.72-4.36-1.08-7.71-1.08
				c-15.53,0-27.69,8.13-36.47,24.37c-8.78,16.25-13.17,35.25-13.17,56.99c0,12.07,1.91,21.45,5.73,28.14
				c3.82,6.69,9.14,10.04,15.95,10.04c8.48,0,17.68-7.82,27.6-23.48c-11.23-14.1-16.85-29.27-16.85-45.52
				C1403.6,274.91,1411.9,258.43,1428.51,244.56z"/>
			<path class="st0" d="M1587.76,344.75c-16.25,14.94-30.5,25.96-42.74,33.06c-12.25,7.11-23.92,10.66-35.04,10.66
				c-12.79,0-23.09-4.96-30.91-14.88c-7.83-9.92-11.74-23.24-11.74-39.97c0-25.09,5.44-55.2,16.31-90.32
				c10.87-35.13,24.07-67.5,39.61-97.13l45.52-16.85c1.43-0.48,2.51-0.72,3.23-0.72c3.46,0,6.3,2.54,8.51,7.62
				c2.21,5.08,3.32,11.92,3.32,20.52c0,24.37-5.62,47.97-16.85,70.79c-11.23,22.82-28.79,47.19-52.69,73.12
				c-0.96,12.43-1.43,20.97-1.43,25.63c0,10.39,1.91,18.64,5.73,24.73c3.82,6.09,8.9,9.14,15.23,9.14c6.45,0,13.32-2.33,20.61-6.99
				c7.29-4.66,18.4-14.34,33.33-29.03V344.75z M1519.12,274.67c15.17-16.87,27.48-35.77,36.92-56.71
				c9.44-20.94,14.16-38.94,14.16-54.02c0-4.43-0.66-7.99-1.97-10.68c-1.32-2.69-2.99-4.04-5.02-4.04
				c-4.42,0-10.84,11.01-19.26,33.02C1535.51,204.26,1527.24,235.07,1519.12,274.67z"/>
			<path class="st0" d="M1688.04,344.75c-16.25,14.94-30.5,25.96-42.74,33.06c-12.25,7.11-23.93,10.66-35.04,10.66
				c-12.79,0-23.09-4.96-30.91-14.88c-7.83-9.92-11.74-23.24-11.74-39.97c0-25.09,5.44-55.2,16.31-90.32
				c10.87-35.13,24.07-67.5,39.61-97.13l45.52-16.85c1.43-0.48,2.51-0.72,3.23-0.72c3.46,0,6.3,2.54,8.51,7.62
				c2.21,5.08,3.32,11.92,3.32,20.52c0,24.37-5.62,47.97-16.85,70.79c-11.23,22.82-28.79,47.19-52.69,73.12
				c-0.96,12.43-1.43,20.97-1.43,25.63c0,10.39,1.91,18.64,5.73,24.73c3.82,6.09,8.9,9.14,15.23,9.14c6.45,0,13.32-2.33,20.61-6.99
				c7.29-4.66,18.4-14.34,33.33-29.03V344.75z M1619.4,274.67c15.17-16.87,27.48-35.77,36.92-56.71
				c9.44-20.94,14.16-38.94,14.16-54.02c0-4.43-0.66-7.99-1.97-10.68c-1.32-2.69-2.99-4.04-5.02-4.04
				c-4.42,0-10.84,11.01-19.27,33.02C1635.8,204.26,1627.53,235.07,1619.4,274.67z"/>
			<path class="st0" d="M1803.74,344.75c-15.17,14.94-28.79,25.96-40.86,33.06c-12.07,7.11-25.39,10.66-39.96,10.66
				c-16.25,0-29.36-5.2-39.34-15.59c-9.98-10.39-14.96-24.07-14.96-41.04c0-25.33,8.78-48.24,26.34-68.73
				c17.56-20.49,37.04-30.74,58.42-30.74c11.11,0,20.01,2.87,26.7,8.6c6.69,5.73,10.04,13.26,10.04,22.58
				c0,24.73-26.28,44.8-78.85,60.22c4.78,23.3,17.26,34.95,37.46,34.95c7.89,0,15.41-2.12,22.58-6.36
				c7.17-4.24,17.98-13.65,32.44-28.23V344.75z M1709.83,311.59c30.58-8.6,45.88-24.49,45.88-47.67c0-11.47-4.18-17.2-12.54-17.2
				c-7.89,0-15.41,6-22.58,18.01C1713.42,276.73,1709.83,292.36,1709.83,311.59z"/>
			<path class="st0" d="M1919.44,344.75c-15.29,15.05-29.3,26.11-42.03,33.15c-12.72,7.05-26.02,10.57-39.88,10.57
				c-15.53,0-28.35-5.05-38.44-15.14c-10.1-10.09-15.14-22.91-15.14-38.44c0-25.45,9.29-48.95,27.87-70.52
				c18.58-21.56,38.68-32.35,60.3-32.35c10.63,0,19.29,2.96,25.99,8.87c6.69,5.91,10.04,13.59,10.04,23.03
				c0,3.35-0.63,5.86-1.88,7.53c-1.25,1.67-3.61,3.35-7.08,5.02l-20.79,9.86c-2.51,1.2-4.36,1.79-5.56,1.79
				c-1.67,0-2.51-1.19-2.51-3.58c0-0.96,0.36-4.09,1.08-9.41c0.72-5.32,1.08-8.57,1.08-9.77c0-5.26-1.11-9.5-3.32-12.72
				c-2.21-3.22-5.17-4.84-8.87-4.84c-8.72,0-16.7,6.45-23.93,19.36c-7.23,12.9-10.84,27.6-10.84,44.09
				c0,14.22,3.4,25.57,10.22,34.05c6.81,8.48,15.89,12.72,27.24,12.72c9.68,0,18.79-2.78,27.33-8.33
				c8.54-5.56,18.25-14.07,29.12-25.54V344.75z"/>
			<path class="st0" d="M2004.32,344.75c-15.05,14.94-28.08,25.96-39.07,33.06c-10.99,7.11-21.45,10.66-31.36,10.66
				c-10.28,0-18.61-4.33-25-12.99c-6.39-8.66-9.59-20.04-9.59-34.14c0-12.42,3.06-28.83,9.2-49.21l7.6-27.13l-13.75,0.72l5.74-28.14
				l17.04-0.72l16.83-55.91l47.87-9.83l-18.52,62.34l25.31-1.43l-5.92,27.6l-27.8,2.15l-11.94,40.16
				c-4.15,13.95-6.22,25.06-6.22,33.31c0,5.62,1.41,10.19,4.22,13.72c2.81,3.53,6.43,5.29,10.86,5.29c6.1,0,12.14-1.94,18.13-5.82
				c5.98-3.88,14.78-11.98,26.38-24.28V344.75z"/>
			<path class="st0" d="M2073.96,344.75c-27.96,29.39-48.87,44.09-62.72,44.09c-7.65,0-14.1-3.91-19.35-11.74
				c-5.26-7.82-7.89-17.65-7.89-29.48c0-25.45,8.6-60.69,25.81-105.74l45.52-9.5h2.15l-17.92,56.09
				c-7.41,23.18-11.11,39.73-11.11,49.64c0,3.94,0.87,7.14,2.6,9.59c1.73,2.45,3.91,3.67,6.54,3.67c4.66,0,9.35-1.7,14.07-5.11
				c4.72-3.41,12.16-10.78,22.31-22.13V344.75z M2070.38,162.31c0,28.67-10.57,43.01-31.72,43.01c-10.28,0-19.06-3.11-26.34-9.32
				c6.93-10.51,12.3-22.34,16.13-35.48c9.44,5.86,17.03,8.78,22.76,8.78C2057.65,169.29,2064.04,166.97,2070.38,162.31z"/>
			<path class="st0" d="M2216.54,344.75c-6.09,5.38-12.01,9.17-17.74,11.38c-5.73,2.21-10.28,3.32-13.62,3.32
				c-8.6,0-17.15-3.34-25.63-10.04c-17.2,26.05-36.92,39.07-59.14,39.07c-13.86,0-25.09-5.2-33.69-15.59
				c-8.6-10.39-12.9-24.19-12.9-41.4c0-27.24,9.68-50.63,29.03-70.16c19.35-19.53,42.47-29.3,69.35-29.3
				c10.15,0,17.59,1.11,22.31,3.32c4.72,2.21,7.62,4.81,8.69,7.8c1.08,2.99,1.61,6.75,1.61,11.29c0,22.34-6.09,49.76-18.28,82.26
				c6.09,5.62,12.48,8.42,19.18,8.42c8,0,18.28-6.99,30.82-20.97V344.75z M2157.4,244.56c-1.79-0.72-4.36-1.08-7.71-1.08
				c-15.53,0-27.69,8.13-36.47,24.37c-8.78,16.25-13.17,35.25-13.17,56.99c0,12.07,1.91,21.45,5.73,28.14
				c3.82,6.69,9.14,10.04,15.95,10.04c8.48,0,17.68-7.82,27.6-23.48c-11.23-14.1-16.85-29.27-16.85-45.52
				C2132.49,274.91,2140.79,258.43,2157.4,244.56z"/>
			<path class="st0" d="M2374,344.75c-27.6,29.15-51.26,43.73-70.97,43.73c-8.01,0-14.46-2.81-19.35-8.42
				c-4.9-5.61-7.35-13.14-7.35-22.58c0-12.78,5.26-32.32,15.77-58.6c5.61-14.1,8.42-23.06,8.42-26.88c0-3.82-1.5-5.73-4.48-5.73
				c-1.67,0-3.88,0.84-6.63,2.51c-2.51,1.67-5.44,4-8.78,6.99c-2.99,2.75-6.33,6.09-10.04,10.04c-3.23,3.35-6.69,7.17-10.39,11.47
				l-10.04,11.65c-4.42,5.38-7.17,11.05-8.24,17.02c-1.79,10.16-2.99,19.48-3.58,27.96c-0.36,6.33-0.54,14.87-0.54,25.63
				l-39.61,9.32c-1.32-16.13-1.97-28.14-1.97-36.02c0-19.23,2.24-37.46,6.72-54.66c4.48-17.2,11.68-36.56,21.59-58.07l43.73-8.42
				c-9.2,24.73-15.23,44.21-18.1,58.42c19.58-21.86,35.13-37.01,46.63-45.43c11.51-8.42,21.74-12.63,30.68-12.63
				c6.08,0,11.15,2.3,15.21,6.89c4.05,4.59,6.08,10.35,6.08,17.27c0,11.46-5.14,30.33-15.41,56.61
				c-7.05,18.04-10.57,29.76-10.57,35.15c0,7.19,2.93,10.78,8.8,10.78c8.74,0,22.88-11.53,42.4-34.59V344.75z"/>
		</g>
	</g>
</g>
</svg>
